<svg aria-hidden="true" style="position: absolute; width: 0; height: 0; overflow: hidden;" version="1.1" xmlns="http://www.w3.org/2000/svg" xmlns:xlink="http://www.w3.org/1999/xlink">
<defs>
<symbol id="icon-linkedin1" viewBox="0 0 32 32">
<path d="M29 0h-26c-1.65 0-3 1.35-3 3v26c0 1.65 1.35 3 3 3h26c1.65 0 3-1.35 3-3v-26c0-1.65-1.35-3-3-3zM12 26h-4v-14h4v14zM10 10c-1.106 0-2-0.894-2-2s0.894-2 2-2c1.106 0 2 0.894 2 2s-0.894 2-2 2zM26 26h-4v-8c0-1.106-0.894-2-2-2s-2 0.894-2 2v8h-4v-14h4v2.481c0.825-1.131 2.087-2.481 3.5-2.481 2.488 0 4.5 2.238 4.5 5v9z"></path>
</symbol>
<symbol id="icon-embed2" viewBox="0 0 40 32">
<path d="M26 23l3 3 10-10-10-10-3 3 7 7z"></path>
<path d="M14 9l-3-3-10 10 10 10 3-3-7-7z"></path>
<path d="M21.916 4.704l2.171 0.592-6 22.001-2.171-0.592 6-22.001z"></path>
</symbol>
<symbol id="icon-angular" viewBox="0 0 32 32">
<path fill="#dd0031" style="fill: var(--color1, #dd0031)" d="M13.24 16.86h5.512l-2.757-6.54zM15.995 0.012l-15.080 5.305 2.3 19.68 12.78 6.991 12.784-6.984 2.299-19.684zM25.405 24.408h-3.515l-1.893-4.668h-8.004l-1.893 4.668h-3.517l9.413-20.864z"></path>
</symbol>
<symbol id="icon-location_city" viewBox="0 0 24 24">
<path d="M18.984 15v-2.016h-1.969v2.016h1.969zM18.984 18.984v-1.969h-1.969v1.969h1.969zM12.984 6.984v-1.969h-1.969v1.969h1.969zM12.984 11.016v-2.016h-1.969v2.016h1.969zM12.984 15v-2.016h-1.969v2.016h1.969zM12.984 18.984v-1.969h-1.969v1.969h1.969zM6.984 11.016v-2.016h-1.969v2.016h1.969zM6.984 15v-2.016h-1.969v2.016h1.969zM6.984 18.984v-1.969h-1.969v1.969h1.969zM15 11.016h6v9.984h-18v-14.016h6v-1.969l3-3 3 3v6z"></path>
</symbol>
<symbol id="icon-external-link" viewBox="0 0 28 28">
<path d="M22 14.5v5c0 2.484-2.016 4.5-4.5 4.5h-13c-2.484 0-4.5-2.016-4.5-4.5v-13c0-2.484 2.016-4.5 4.5-4.5h11c0.281 0 0.5 0.219 0.5 0.5v1c0 0.281-0.219 0.5-0.5 0.5h-11c-1.375 0-2.5 1.125-2.5 2.5v13c0 1.375 1.125 2.5 2.5 2.5h13c1.375 0 2.5-1.125 2.5-2.5v-5c0-0.281 0.219-0.5 0.5-0.5h1c0.281 0 0.5 0.219 0.5 0.5zM28 1v8c0 0.547-0.453 1-1 1-0.266 0-0.516-0.109-0.703-0.297l-2.75-2.75-10.187 10.187c-0.094 0.094-0.234 0.156-0.359 0.156s-0.266-0.063-0.359-0.156l-1.781-1.781c-0.094-0.094-0.156-0.234-0.156-0.359s0.063-0.266 0.156-0.359l10.187-10.187-2.75-2.75c-0.187-0.187-0.297-0.438-0.297-0.703 0-0.547 0.453-1 1-1h8c0.547 0 1 0.453 1 1z"></path>
</symbol>
<symbol id="icon-skype" viewBox="0 0 24 28">
<path d="M18.328 16.609c0-2.719-2.641-3.656-4.859-4.156l-1.625-0.375c-1.188-0.281-2.078-0.484-2.078-1.391 0-0.828 0.875-1.203 2.25-1.203 2.453 0 2.5 1.797 4.016 1.797 1.016 0 1.625-0.797 1.625-1.703 0-1.797-2.984-2.969-5.938-2.969-2.703 0-5.844 1.172-5.844 4.344 0 2.625 1.75 3.563 4.031 4.109l2.281 0.562c1.391 0.344 2.25 0.5 2.25 1.5 0 0.797-0.891 1.406-2.266 1.406-2.891 0-3.047-2.406-4.719-2.406-1.094 0-1.578 0.781-1.578 1.641 0 1.922 2.938 3.484 6.453 3.484 2.938 0 6-1.469 6-4.641zM24 20c0 3.313-2.688 6-6 6-1.375 0-2.641-0.469-3.656-1.25-0.75 0.156-1.547 0.25-2.344 0.25-6.078 0-11-4.922-11-11 0-0.797 0.094-1.594 0.25-2.344-0.781-1.016-1.25-2.281-1.25-3.656 0-3.313 2.688-6 6-6 1.375 0 2.641 0.469 3.656 1.25 0.75-0.156 1.547-0.25 2.344-0.25 6.078 0 11 4.922 11 11 0 0.797-0.094 1.594-0.25 2.344 0.781 1.016 1.25 2.281 1.25 3.656z"></path>
</symbol>
<symbol id="icon-volume-control-phone" viewBox="0 0 22 28">
<path d="M9.641 26.391c0-0.375-0.828-3.031-1-3.656-0.094-0.391-0.125-1.031-0.422-1.313-0.203-0.187-0.531-0.219-0.797-0.219-0.734 0-1.469 0.172-2.203 0.172-0.219 0-0.547-0.016-0.734-0.172-0.25-0.203-0.375-0.906-0.469-1.219-0.375-1.297-0.578-2.625-0.578-3.984s0.203-2.688 0.578-3.984c0.094-0.313 0.219-1.016 0.469-1.219 0.187-0.156 0.516-0.172 0.734-0.172 0.734 0 1.469 0.172 2.203 0.172 0.266 0 0.594-0.031 0.797-0.219 0.297-0.281 0.328-0.922 0.422-1.313 0.172-0.625 1-3.281 1-3.656 0-0.531-1.406-1.313-1.859-1.484-0.234-0.094-0.469-0.125-0.703-0.125-0.516 0-1.031 0.141-1.531 0.281-2.562 0.766-3.172 2.328-4.188 4.531-1.094 2.359-1.359 4.609-1.359 7.187s0.266 4.828 1.359 7.187c1.016 2.203 1.625 3.766 4.188 4.531 0.5 0.141 1.016 0.281 1.531 0.281 0.234 0 0.469-0.031 0.703-0.125 0.453-0.172 1.859-0.953 1.859-1.484zM12.125 12.125c-0.266 0-0.516-0.109-0.703-0.297-0.391-0.391-0.406-1.031 0-1.422 0.375-0.375 0.578-0.875 0.578-1.406s-0.203-1.031-0.578-1.422c-0.406-0.391-0.391-1.016 0-1.406s1.016-0.391 1.406 0c0.75 0.75 1.172 1.766 1.172 2.828s-0.422 2.078-1.172 2.828c-0.203 0.187-0.453 0.297-0.703 0.297zM14.953 14.953c-0.266 0-0.516-0.094-0.703-0.297-0.391-0.391-0.391-1.016 0-1.406 1.125-1.141 1.75-2.641 1.75-4.25s-0.625-3.109-1.75-4.25c-0.391-0.391-0.391-1.016 0-1.406s1.016-0.391 1.406 0c1.516 1.516 2.344 3.516 2.344 5.656s-0.828 4.141-2.344 5.656c-0.187 0.203-0.453 0.297-0.703 0.297zM17.781 17.781c-0.266 0-0.516-0.094-0.703-0.297-0.391-0.391-0.391-1.016 0-1.406 1.875-1.891 2.922-4.406 2.922-7.078s-1.047-5.187-2.922-7.078c-0.391-0.391-0.391-1.016 0-1.406s1.016-0.391 1.406 0c2.266 2.266 3.516 5.281 3.516 8.484s-1.25 6.219-3.516 8.484c-0.187 0.203-0.453 0.297-0.703 0.297z"></path>
</symbol>
<symbol id="icon-envelope-open" viewBox="0 0 28 28">
<path d="M28 10.219v15.281c0 1.375-1.125 2.5-2.5 2.5h-23c-1.375 0-2.5-1.125-2.5-2.5v-15.281c0-0.141 0.063-0.281 0.172-0.375 1.641-1.437 1.656-1.609 9.812-7.562 0.984-0.719 2.719-2.281 4.016-2.281s3.047 1.578 4.016 2.281c8.156 5.953 8.172 6.125 9.812 7.562 0.109 0.094 0.172 0.234 0.172 0.375zM19.187 19.359c2.438-1.766 4.141-3 5.391-3.938 0.219-0.156 0.266-0.469 0.094-0.688l-0.594-0.812c-0.172-0.219-0.484-0.266-0.703-0.094-1.234 0.906-2.922 2.156-5.359 3.906-0.969 0.703-2.719 2.266-4.016 2.266s-3.047-1.563-4.016-2.266c-2.438-1.766-4.125-3-5.359-3.906-0.219-0.172-0.531-0.125-0.703 0.094l-0.594 0.812c-0.172 0.219-0.125 0.531 0.094 0.688 1.25 0.938 2.953 2.172 5.391 3.938 1.219 0.875 3.141 2.641 5.187 2.641 2.063 0 4.031-1.797 5.187-2.641z"></path>
</symbol>
<symbol id="icon-envelope-open-o" viewBox="0 0 28 28">
<path d="M23.031 14.266l0.609 0.797c0.172 0.219 0.125 0.516-0.078 0.688-1.563 1.219-5.156 3.984-5.313 4.109-1.109 0.906-2.609 2.156-4.234 2.141h-0.031c-1.625 0-3.125-1.234-4.234-2.141-0.172-0.141-3.641-2.812-5.172-4-0.219-0.172-0.266-0.469-0.094-0.688l0.578-0.812c0.172-0.234 0.5-0.281 0.719-0.094 1.062 0.828 2.562 1.984 4.781 3.687 0.781 0.594 2.328 2.047 3.422 2.047h0.031c1.094 0 2.641-1.453 3.422-2.047 2.297-1.766 3.828-2.938 4.891-3.781 0.219-0.172 0.531-0.125 0.703 0.094zM26 25.5v-14.5c-1.563-1.453-1.328-1.328-8.563-6.922-0.781-0.609-2.328-2.078-3.422-2.078h-0.031c-1.094 0-2.641 1.469-3.422 2.078-7.234 5.594-7 5.469-8.563 6.922v14.5c0 0.266 0.234 0.5 0.5 0.5h23c0.266 0 0.5-0.234 0.5-0.5zM28 11v14.5c0 1.375-1.125 2.5-2.5 2.5h-23c-1.375 0-2.5-1.125-2.5-2.5v-14.5c0-0.562 0.234-1.094 0.641-1.469 3.203-2.969 6.891-5.547 9.109-7.375 1.094-0.906 2.609-2.156 4.234-2.156h0.031c1.625 0 3.141 1.25 4.234 2.156 2.063 1.703 5.984 4.469 9.109 7.375 0.406 0.375 0.641 0.906 0.641 1.469z"></path>
</symbol>
</defs>
</svg>
